<?xml version="1.0" standalone="no"?>
<!DOCTYPE svg PUBLIC "-//W3C//DTD SVG 20010904//EN"
 "http://www.w3.org/TR/2001/REC-SVG-20010904/DTD/svg10.dtd">
<svg version="1.0" xmlns="http://www.w3.org/2000/svg"
 width="180.000000pt" height="200.000000pt" viewBox="0 0 180.000000 200.000000"
 preserveAspectRatio="xMidYMid meet">

<g transform="translate(0.000000,200.000000) scale(0.100000,-0.100000)"
fill="#000000" stroke="none">
<path d="M599 1547 l-57 -63 71 -130 c71 -128 72 -130 77 -219 l5 -90 55 -12
c71 -14 241 -14 305 0 l50 12 5 90 c5 89 6 92 72 211 37 67 69 126 70 131 2 5
-22 37 -53 72 l-56 63 -88 -158 c-105 -187 -132 -249 -141 -326 -4 -32 -10
-58 -14 -58 -4 0 -10 26 -14 58 -4 31 -17 82 -29 113 -19 44 -195 369 -200
369 -1 0 -27 -28 -58 -63z"/>
<path d="M842 1540 c-30 -33 -52 -64 -50 -68 19 -43 102 -182 108 -182 6 0 89
140 108 183 4 7 -93 119 -107 124 -3 1 -30 -24 -59 -57z"/>
<path d="M500 825 c0 -79 4 -112 16 -130 23 -35 84 -55 169 -55 l75 0 0 145 0
145 -30 0 -30 0 0 -126 0 -127 -47 6 c-35 4 -53 12 -70 32 -20 23 -23 37 -23
121 l0 94 -30 0 -30 0 0 -105z"/>
<path d="M837 914 c-71 -39 -50 -105 46 -139 68 -25 81 -36 72 -64 -8 -26 -41
-35 -106 -29 -46 5 -50 4 -47 -16 6 -45 182 -25 208 24 6 10 10 30 10 44 0 29
-40 59 -101 76 -20 5 -44 19 -53 29 -17 18 -17 20 4 41 19 19 30 22 71 18 43
-4 49 -3 49 13 0 17 -8 19 -62 19 -37 -1 -75 -7 -91 -16z"/>
<path d="M1040 785 l0 -145 78 0 c85 0 152 23 171 58 6 12 11 68 11 126 l0
106 -30 0 -30 0 0 -94 c0 -84 -3 -98 -23 -121 -17 -20 -35 -28 -70 -32 l-47
-6 0 127 0 126 -30 0 -30 0 0 -145z"/>
</g>
</svg>
